<?xml version="1.0" standalone="no"?>
<!DOCTYPE svg PUBLIC "-//W3C//DTD SVG 20010904//EN"
 "http://www.w3.org/TR/2001/REC-SVG-20010904/DTD/svg10.dtd">
<svg version="1.0" xmlns="http://www.w3.org/2000/svg"
 width="700.000000pt" height="700.000000pt" viewBox="0 0 700.000000 700.000000"
 preserveAspectRatio="xMidYMid meet">
<metadata>
Created by potrace 1.11, written by Peter Selinger 2001-2013
</metadata>
<g transform="translate(0.000000,700.000000) scale(0.100000,-0.100000)"
fill="#000000" stroke="none">
<path d="M59 5491 c-1 -3 -2 -945 -3 -2093 l-1 -2088 25 -1 c200 -4 2433 1
2438 5 3 4 6 108 7 231 0 193 -2 225 -15 226 -8 1 -447 2 -975 3 l-960 1 0
1860 0 1860 -258 1 c-141 1 -258 -1 -258 -5z"/>
<path d="M2852 3403 l3 -2095 235 1 c129 0 245 0 258 1 l22 0 0 1738 c1 1567
2 1734 16 1702 8 -19 62 -152 120 -295 58 -143 109 -269 114 -280 5 -11 118
-288 250 -615 133 -327 247 -608 255 -625 7 -16 65 -158 128 -315 221 -547
297 -735 307 -755 14 -32 201 -495 212 -526 9 -28 13 -29 71 -30 107 -2 152 2
159 14 4 7 28 64 54 127 26 63 166 405 312 760 145 355 313 767 374 915 60
149 116 284 123 300 7 17 22 53 33 80 97 240 326 796 336 820 7 17 51 123 97
237 46 114 86 208 89 208 3 0 5 -778 5 -1730 l0 -1730 47 -1 c223 -2 458 0
465 4 5 3 9 897 8 2094 l0 2088 -372 1 -371 1 -45 -111 c-25 -61 -157 -381
-292 -711 -135 -330 -276 -672 -311 -760 -95 -233 -155 -377 -165 -400 -4 -11
-25 -60 -45 -110 -20 -49 -42 -103 -49 -120 -7 -16 -34 -82 -59 -145 -26 -63
-51 -124 -56 -135 -8 -17 -144 -350 -251 -613 -33 -83 -34 -83 -46 -55 -7 15
-49 118 -93 228 -44 110 -85 211 -92 225 -6 14 -14 34 -18 45 -4 11 -17 43
-29 70 -11 28 -116 284 -232 570 -116 286 -283 698 -371 915 -89 217 -219 539
-291 715 -71 176 -136 336 -144 356 l-15 36 -374 0 -374 1 2 -2095z"/>
</g>
</svg>
