<?xml version="1.0" standalone="no"?>
<!DOCTYPE svg PUBLIC "-//W3C//DTD SVG 20010904//EN"
 "http://www.w3.org/TR/2001/REC-SVG-20010904/DTD/svg10.dtd">
<svg version="1.0" xmlns="http://www.w3.org/2000/svg"
 width="700.000000pt" height="700.000000pt" viewBox="0 0 700.000000 700.000000"
 preserveAspectRatio="xMidYMid meet">
<metadata>
Created by potrace 1.11, written by Peter Selinger 2001-2013
</metadata>
<g transform="translate(0.000000,700.000000) scale(0.100000,-0.100000)"
fill="#000000" stroke="none">
<path d="M4454 6871 c-33 -20 -55 -66 -49 -103 2 -13 9 -66 15 -118 12 -98 17
-137 25 -180 2 -14 7 -47 10 -73 3 -26 10 -71 16 -100 5 -29 12 -92 15 -142 4
-82 30 -206 54 -262 6 -13 16 -35 22 -50 23 -53 87 -141 126 -174 22 -19 54
-60 72 -92 l33 -58 -44 -45 c-25 -26 -74 -59 -114 -79 -67 -31 -266 -85 -368
-100 -27 -3 -57 -8 -66 -10 -53 -10 -143 -6 -236 11 -165 30 -598 23 -790 -13
-40 -7 -41 -7 -105 1 -106 13 -270 51 -433 101 l-86 26 -42 77 c-155 284 -414
572 -692 770 -33 22 -89 69 -126 104 -151 141 -204 171 -450 256 -102 35 -198
66 -212 69 -34 6 -93 -21 -108 -50 -36 -71 -20 -104 109 -217 9 -8 52 -47 96
-87 43 -39 88 -80 100 -90 22 -19 149 -133 248 -223 91 -83 167 -159 213 -215
48 -59 158 -207 164 -221 2 -5 22 -36 43 -69 22 -33 50 -76 62 -95 28 -45 118
-202 174 -305 62 -114 60 -112 100 -128 19 -8 128 -40 241 -72 l205 -56 -146
-292 c-152 -303 -199 -403 -307 -647 -115 -258 -249 -625 -269 -733 -3 -21
-12 -41 -19 -44 -7 -2 -98 19 -202 47 -201 56 -231 60 -268 36 -48 -31 -62
-103 -31 -150 24 -37 212 -119 404 -176 70 -21 73 -23 68 -49 -3 -14 -8 -51
-11 -81 -4 -30 -8 -71 -11 -90 -2 -19 -6 -60 -9 -90 -3 -30 -8 -68 -10 -85 -6
-44 -22 -195 -30 -280 -5 -56 -14 -147 -20 -216 -5 -47 -10 -109 -20 -254 -3
-44 -7 -105 -10 -135 -25 -303 -25 -828 0 -1025 30 -236 85 -367 172 -411 38
-20 56 -21 180 -18 445 10 724 29 928 60 107 17 172 45 200 88 25 38 25 61 0
138 -83 259 -171 639 -200 866 -2 20 -7 48 -9 62 -3 14 -8 50 -11 80 -3 30 -7
66 -9 80 -6 36 -16 128 -20 180 -13 154 -18 219 -21 250 -6 58 -18 401 -19
542 l-1 133 51 1 c28 1 78 -2 110 -7 33 -4 86 -10 119 -14 33 -3 67 -8 75 -10
8 -2 36 -6 61 -9 244 -31 665 -141 929 -244 33 -13 254 -48 355 -57 171 -15
228 -18 342 -19 460 -5 776 89 973 288 122 124 194 307 154 391 -26 56 -80 75
-140 50 -25 -10 -39 -29 -67 -87 -89 -188 -281 -304 -567 -343 -25 -3 -58 -8
-75 -11 -44 -8 -371 -7 -435 0 -30 4 -73 9 -95 11 -22 3 -57 7 -78 10 -105 12
-236 39 -267 55 -75 38 -495 159 -644 186 -16 3 -32 7 -35 9 -4 2 -26 6 -51
10 -25 4 -47 8 -50 10 -6 4 -73 11 -190 20 -61 5 -94 8 -210 20 -101 10 -146
16 -165 19 -11 3 -35 5 -53 5 l-34 1 7 63 c3 34 8 73 10 87 2 14 7 49 10 79 4
30 8 61 10 70 1 9 6 41 10 71 4 30 9 64 11 75 2 10 6 37 10 60 11 76 65 360
86 450 17 75 42 174 98 390 36 141 152 497 195 598 l15 37 98 1 c136 1 302 12
372 23 14 2 46 7 71 10 212 29 484 112 652 198 122 63 236 136 277 179 40 42
100 164 107 217 5 41 6 41 72 63 127 42 311 151 336 200 36 69 -3 146 -80 155
-35 5 -60 -5 -210 -80 -241 -122 -247 -121 -333 56 -65 134 -109 276 -117 378
-17 216 -64 481 -93 532 -29 49 -94 62 -148 29z"/>
</g>
</svg>
